[Header]
FileType HTR
DataType HTRS
FileVersion 1
NumSegments 64
NumFrames 3
DataFrameRate 30
EulerRotationOrder ZYX
CalibrationUnits mm
RotationUnits Degrees
GlobalAxisofGravity Y
BoneLengthAxis Y
ScaleFactor 1.0
[SegmentNames&Hierarchy]
Hips	GLOBAL
Spine	Hips
Spine1	Spine
Spine2	Spine1
Neck	Spine2
Head	Neck
LeftEye	Head
RightEye	Head
LeftShoulder	Spine2
LeftArm	LeftShoulder
LeftForeArm	LeftArm
LeftHand	LeftForeArm
LeftHandThumb1	LeftHand
LeftHandThumb2	LeftHandThumb1
LeftHandThumb3	LeftHandThumb2
LeftHandThumb4	LeftHandThumb3
LeftHandIndex1	LeftHand
LeftHandIndex2	LeftHandIndex1
LeftHandIndex3	LeftHandIndex2
LeftHandIndex4	LeftHandIndex3
LeftHandMiddle1	LeftHand
LeftHandMiddle2	LeftHandMiddle1
LeftHandMiddle3	LeftHandMiddle2
LeftHandMiddle4	LeftHandMiddle3
LeftHandRing1	LeftHand
LeftHandRing2	LeftHandRing1
LeftHandRing3	LeftHandRing2
LeftHandRing4	LeftHandRing3
LeftHandPinky1	LeftHand
LeftHandPinky2	LeftHandPinky1
LeftHandPinky3	LeftHandPinky2
LeftHandPinky4	LeftHandPinky3
RightShoulder	Spine2
RightArm	RightShoulder
RightForeArm	RightArm
RightHand	RightForeArm
RightHandPinky1	RightHand
RightHandPinky2	RightHandPinky1
RightHandPinky3	RightHandPinky2
RightHandPinky4	RightHandPinky3
RightHandRing1	RightHand
RightHandRing2	RightHandRing1
RightHandRing3	RightHandRing2
RightHandRing4	RightHandRing3
RightHandMiddle1	RightHand
RightHandMiddle2	RightHandMiddle1
RightHandMiddle3	RightHandMiddle2
RightHandMiddle4	RightHandMiddle3
RightHandIndex1	RightHand
RightHandIndex2	RightHandIndex1
RightHandIndex3	RightHandIndex2
RightHandIndex4	RightHandIndex3
RightHandThumb1	RightHand
RightHandThumb2	RightHandThumb1
RightHandThumb3	RightHandThumb2
RightHandThumb4	RightHandThumb3
LeftUpLeg	Hips
LeftLeg	LeftUpLeg
LeftFoot	LeftLeg
LeftToeBase	LeftFoot
RightUpLeg	Hips
RightLeg	RightUpLeg
RightFoot	RightLeg
RightToeBase	RightFoot
[BasePosition]
Hips	0	0	0	0	0	0	1
Spine	0	0	0	0	0	0	1
Spine1	0	0	0	0	0	0	1
Spine2	0	0	0	0	0	0	1
Neck	0	0	0	0	0	0	1
Head	0	0	0	0	0	0	1
LeftEye	0	0	0	0	0	0	1
RightEye	0	0	0	0	0	0	1
LeftShoulder	0	0	0	0	0	0	1
LeftArm	0	0	0	0	0	0	1
LeftForeArm	0	0	0	0	0	0	1
LeftHand	0	0	0	0	0	0	1
LeftHandThumb1	0	0	0	0	0	0	1
LeftHandThumb2	0	0	0	0	0	0	1
LeftHandThumb3	0	0	0	0	0	0	1
LeftHandThumb4	0	0	0	0	0	0	1
LeftHandIndex1	0	0	0	0	0	0	1
LeftHandIndex2	0	0	0	0	0	0	1
LeftHandIndex3	0	0	0	0	0	0	1
LeftHandIndex4	0	0	0	0	0	0	1
LeftHandMiddle1	0	0	0	0	0	0	1
LeftHandMiddle2	0	0	0	0	0	0	1
LeftHandMiddle3	0	0	0	0	0	0	1
LeftHandMiddle4	0	0	0	0	0	0	1
LeftHandRing1	0	0	0	0	0	0	1
LeftHandRing2	0	0	0	0	0	0	1
LeftHandRing3	0	0	0	0	0	0	1
LeftHandRing4	0	0	0	0	0	0	1
LeftHandPinky1	0	0	0	0	0	0	1
LeftHandPinky2	0	0	0	0	0	0	1
LeftHandPinky3	0	0	0	0	0	0	1
LeftHandPinky4	0	0	0	0	0	0	1
RightShoulder	0	0	0	0	0	0	1
RightArm	0	0	0	0	0	0	1
RightForeArm	0	0	0	0	0	0	1
RightHand	0	0	0	0	0	0	1
RightHandPinky1	0	0	0	0	0	0	1
RightHandPinky2	0	0	0	0	0	0	1
RightHandPinky3	0	0	0	0	0	0	1
RightHandPinky4	0	0	0	0	0	0	1
RightHandRing1	0	0	0	0	0	0	1
RightHandRing2	0	0	0	0	0	0	1
RightHandRing3	0	0	0	0	0	0	1
RightHandRing4	0	0	0	0	0	0	1
RightHandMiddle1	0	0	0	0	0	0	1
RightHandMiddle2	0	0	0	0	0	0	1
RightHandMiddle3	0	0	0	0	0	0	1
RightHandMiddle4	0	0	0	0	0	0	1
RightHandIndex1	0	0	0	0	0	0	1
RightHandIndex2	0	0	0	0	0	0	1
RightHandIndex3	0	0	0	0	0	0	1
RightHandIndex4	0	0	0	0	0	0	1
RightHandThumb1	0	0	0	0	0	0	1
RightHandThumb2	0	0	0	0	0	0	1
RightHandThumb3	0	0	0	0	0	0	1
RightHandThumb4	0	0	0	0	0	0	1
LeftUpLeg	0	0	0	0	0	0	1
LeftLeg	0	0	0	0	0	0	1
LeftFoot	0	0	0	0	0	0	1
LeftToeBase	0	0	0	0	0	0	1
RightUpLeg	0	0	0	0	0	0	1
RightLeg	0	0	0	0	0	0	1
RightFoot	0	0	0	0	0	0	1
RightToeBase	0	0	0	0	0	0	1
[Hips]
3	-128.2994995	1002.323547	14.38581276	5.448434353	-70.65536499	0.2606225312	1.0
4	-187.3690033	988.9538574	16.76772499	8.638580322	-74.29171753	-2.780932188	1.0
5	-249.0666199	969.5342407	18.01711082	16.50313377	-78.62166595	-10.7788887	1.0
[Spine]
3	0	101.8159943	1.315000057	5.370759964	10.85101604	-0.5259732604	1.0
4	0	101.8159943	1.315000057	5.026533127	13.83779716	-0.2476697117	1.0
5	0	101.8159943	1.315000057	4.752533913	17.42091942	0.2018294781	1.0
[Spine1]
3	0	100.8349991	-10.00800037	3.744575024	5.628299236	-0.6623781323	1.0
4	0	100.8349991	-10.00800037	3.44882822	6.156011105	-0.556512475	1.0
5	0	100.8349991	-10.00800037	3.200696945	6.6924119	-0.3462378979	1.0
[Spine2]
3	0	91	-13.73399925	3.682090282	5.672267914	-0.6653494835	1.0
4	0	91	-13.73399925	3.372178078	6.201741695	-0.5883486867	1.0
5	0	91	-13.73399925	3.119887829	6.734699726	-0.4114612639	1.0
[Neck]
3	0	166.7169952	-25.16200066	4.910274506	5.459942818	1.983235478	1.0
4	0	166.7169952	-25.16200066	4.718891621	5.519850254	1.792527914	1.0
5	0	166.7169952	-25.16200066	4.424915791	5.605282307	1.785144806	1.0
[Head]
3	0	96.17900085	16.84999847	-11.05295849	33.8038826	-12.3287487	1.0
4	0	96.17900085	16.84999847	-11.31821918	34.03649139	-13.08613396	1.0
5	0	96.17900085	16.84999847	-11.66215706	34.56044388	-13.84468269	1.0
[LeftEye]
3	30.6760006	64.09500122	92.83599854	0	0	0	1.0
4	30.6760006	64.09500122	92.83599854	0	0	0	1.0
5	30.6760006	64.09500122	92.83599854	0	0	0	1.0
[RightEye]
3	-30.6760006	64.09500122	92.83499908	0	0	0	1.0
4	-30.6760006	64.09500122	92.83499908	0	0	0	1.0
5	-30.6760006	64.09500122	92.83499908	0	0	0	1.0
[LeftShoulder]
3	45.70400238	109.4599991	-26.28000069	1.291446686	4.943894863	-7.387423038	1.0
4	45.70400238	109.4599991	-26.28000069	1.35548985	6.11485672	-7.415984154	1.0
5	45.70400238	109.4599991	-26.28000069	1.362958789	6.971161366	-7.430589199	1.0
[LeftArm]
3	105.923996	-5.24600029	-22.32099915	17.51865959	-3.705155134	-66.65270233	1.0
4	105.923996	-5.24600029	-22.32099915	16.77705193	-0.09403357655	-66.05283356	1.0
5	105.923996	-5.24600029	-22.32099915	15.62509918	2.909668446	-66.02690887	1.0
[LeftForeArm]
3	278.414978	-0.0009999999311	0	6.263135674e-06	-24.39608192	-0.0001957273926	1.0
4	278.414978	-0.0009999999311	0	-1.161831847e-06	-23.38173103	-0.000198388705	1.0
5	278.414978	-0.0009999999311	0	-8.030972822e-06	-21.7167511	-0.0001998131629	1.0
[LeftHand]
3	283.2879944	0	0	5.321673393	-6.054098129	3.323562384	1.0
4	283.2879944	0	0	6.243385792	-1.883483529	2.649978161	1.0
5	283.2879944	0	0	6.54474926	1.281919122	2.280465841	1.0
[LeftHandThumb1]
3	24.6609993	-15.75	26.8239994	30.58115005	-20.32058144	11.29641056	1.0
4	24.6609993	-15.75	26.8239994	30.58115005	-20.32058144	11.29641056	1.0
5	24.6609993	-15.75	26.8239994	30.58115005	-20.32058144	11.29641056	1.0
[LeftHandThumb2]
3	32.29800034	-18.64699936	18.64699936	10.67254925	23.15939522	-1.505209446	1.0
4	32.29800034	-18.64699936	18.64699936	11.39573288	22.63227463	-1.837876797	1.0
5	32.29800034	-18.64699936	18.64699936	11.85418224	21.51295662	-2.100000381	1.0
[LeftHandThumb3]
3	26.52600098	-15.31499958	15.31499958	-15.04758358	8.255399704	9.965918541	1.0
4	26.52600098	-15.31499958	15.31499958	-15.08321762	8.171742439	9.991301537	1.0
5	26.52600098	-15.31499958	15.31499958	-15.10908413	8.111023903	10.00979042	1.0
[LeftHandThumb4]
3	19.54599953	-11.28499985	11.28499985	0	0	0	1.0
4	19.54599953	-11.28499985	11.28499985	0	0	0	1.0
5	19.54599953	-11.28499985	11.28499985	0	0	0	1.0
[LeftHandIndex1]
3	91.09299469	-5.170999527	22.60099792	-1.118717313	-5.833203316	-22.20372772	1.0
4	91.09299469	-5.170999527	22.60099792	-1.230960131	-5.849765778	-23.48000526	1.0
5	91.09299469	-5.170999527	22.60099792	-1.273351192	-5.893924713	-23.90630531	1.0
[LeftHandIndex2]
3	36.76399994	0	0	-0.725466013	2.818991899	-28.85860062	1.0
4	36.76399994	0	0	-0.723051548	2.814601183	-28.80940628	1.0
5	36.76399994	0	0	-0.7195628285	2.808228254	-28.73809052	1.0
[LeftHandIndex3]
3	28.83100128	0	0	-0.3008505702	1.850733876	-18.46499252	1.0
4	28.83100128	0	0	-0.2992459834	1.845932245	-18.41533279	1.0
5	28.83100128	0	0	-0.2969303429	1.838960528	-18.34334564	1.0
[LeftHandIndex4]
3	23.92700005	0	0	0	0	0	1.0
4	23.92700005	0	0	0	0	0	1.0
5	23.92700005	0	0	0	0	0	1.0
[LeftHandMiddle1]
3	95.33399963	0	0	-2.445805788	2.170989037	-36.04333115	1.0
4	95.33399963	0	0	-2.492728472	2.229110479	-36.54228592	1.0
5	95.33399963	0	0	-2.487596989	2.314455509	-36.48416901	1.0
[LeftHandMiddle2]
3	36.98199844	0	0	-0.5840383172	2.545810461	-25.83712769	1.0
4	36.98199844	0	0	-0.5844379663	2.546649218	-25.84620285	1.0
5	36.98199844	0	0	-0.5792295933	2.535886288	-25.72873116	1.0
[LeftHandMiddle3]
3	29.50900078	0	0	-0.4121745825	2.155468702	-21.64893723	1.0
4	29.50900078	0	0	-0.412511915	2.156328678	-21.65807915	1.0
5	29.50900078	0	0	-0.4080576301	2.145058632	-21.53932381	1.0
[LeftHandMiddle4]
3	28.3390007	0	0	0	0	0	1.0
4	28.3390007	0	0	0	0	0	1.0
5	28.3390007	0	0	0	0	0	1.0
[LeftHandRing1]
3	91.04499817	-0.4390000105	-18.65100098	-2.185639143	3.512604952	-33.18035126	1.0
4	91.04499817	-0.4390000105	-18.65100098	-2.212557554	3.400627613	-33.48058701	1.0
5	91.04499817	-0.4390000105	-18.65100098	-2.189743042	3.415239096	-33.2279129	1.0
[LeftHandRing2]
3	31.54000092	0	0	-0.8739863038	3.072789669	-31.74790573	1.0
4	31.54000092	0	0	-0.869165957	3.06499505	-31.65778923	1.0
5	31.54000092	0	0	-0.8612192273	3.052085876	-31.50877571	1.0
[LeftHandRing3]
3	29.37700081	0	0	-0.9715555906	3.22491169	-33.5240593	1.0
4	29.37700081	0	0	-0.9664203525	3.217161179	-33.4325943	1.0
5	29.37700081	0	0	-0.9579477906	3.204311609	-33.28141022	1.0
[LeftHandRing4]
3	26.47500038	0	0	0	0	0	1.0
4	26.47500038	0	0	0	0	0	1.0
5	26.47500038	0	0	0	0	0	1.0
[LeftHandPinky1]
3	80.77799988	-4.887000084	-38.06099701	-1.817652941	3.715814352	-28.82181168	1.0
4	80.77799988	-4.887000084	-38.06099701	-1.855848312	3.238050699	-29.2773037	1.0
5	80.77799988	-4.887000084	-38.06099701	-1.873774052	2.930455685	-29.4935894	1.0
[LeftHandPinky2]
3	36	0	0	-0.4598268867	2.271752119	-22.88266182	1.0
4	36	0	0	-0.4608343542	2.274127245	-22.90807152	1.0
5	36	0	0	-0.462087363	2.277073145	-22.93954086	1.0
[LeftHandPinky3]
3	21.14200211	0	0	-0.5259296298	2.422292233	-24.49674034	1.0
4	21.14200211	0	0	-0.5268682241	2.424372673	-24.51911545	1.0
5	21.14200211	0	0	-0.5274211168	2.425572395	-24.53201675	1.0
[LeftHandPinky4]
3	19.75699997	0	0	0	0	0	1.0
4	19.75699997	0	0	0	0	0	1.0
5	19.75699997	0	0	0	0	0	1.0
[RightShoulder]
3	-45.70000076	109.4620056	-26.28000069	-2.652737856	8.187374115	9.021687508	1.0
4	-45.70000076	109.4620056	-26.28000069	-2.914839029	8.991909027	8.929556847	1.0
5	-45.70000076	109.4620056	-26.28000069	-2.95084691	9.803235054	9.011889458	1.0
[RightArm]
3	-105.9280014	-5.248000145	-22.32099915	27.3653717	19.88075638	57.65611267	1.0
4	-105.9280014	-5.248000145	-22.32099915	29.27059364	21.30722618	55.97264862	1.0
5	-105.9280014	-5.248000145	-22.32099915	32.13924408	23.35932732	54.50905228	1.0
[RightForeArm]
3	-278.414978	0	0	-1.453913455e-06	17.79448318	6.780491276e-06	1.0
4	-278.414978	0	0	4.11901425e-07	20.20605469	7.067041224e-06	1.0
5	-278.414978	0	0	4.193690074e-06	22.03996849	7.980279406e-06	1.0
[RightHand]
3	-283.2879944	0	0.0009999999311	2.514878035	-1.689451456	-22.95030212	1.0
4	-283.2879944	0	0.0009999999311	1.007559061	-1.750363708	-23.91811562	1.0
5	-283.2879944	0	0.0009999999311	0.04665739089	-1.275532007	-24.52279663	1.0
[RightHandPinky1]
3	-80.76699829	-4.885000229	-38.06000137	-2.133087397	-3.934241772	35.35123062	1.0
4	-80.76699829	-4.885000229	-38.06000137	-2.109255791	-3.419084549	35.05007553	1.0
5	-80.76699829	-4.885000229	-38.06000137	-2.079490185	-2.99535346	34.68038177	1.0
[RightHandPinky2]
3	-36	0	0.0009999999311	-0.4049393237	-1.895448923	24.13630104	1.0
4	-36	0	0.0009999999311	-0.4019940495	-1.888851762	24.04698944	1.0
5	-36	0	0.0009999999311	-0.3977644742	-1.879332781	23.91824341	1.0
[RightHandPinky3]
3	-21.14200211	0	0	-0.1795068681	-1.278081298	15.98923779	1.0
4	-21.14200211	0	0	-0.177476719	-1.270978689	15.89801693	1.0
5	-21.14200211	0	0	-0.1745379865	-1.260622859	15.76507759	1.0
[RightHandPinky4]
3	-19.75699997	0	0	0	0	0	1.0
4	-19.75699997	0	0	0	0	0	1.0
5	-19.75699997	0	0	0	0	0	1.0
[RightHandRing1]
3	-91.03599548	-0.4390000105	-18.65100098	-1.851392031	-6.660403728	31.7709713	1.0
4	-91.03599548	-0.4390000105	-18.65100098	-1.79371202	-6.502003193	31.0125103	1.0
5	-91.03599548	-0.4390000105	-18.65100098	-1.71366632	-6.302034855	29.95391083	1.0
[RightHandRing2]
3	-31.54000092	0	0	-0.3792392015	-1.836988091	23.32740021	1.0
4	-31.54000092	0	0	-0.3784945011	-1.835264444	23.30416489	1.0
5	-31.54000092	0	0	-0.3765684664	-1.830788851	23.24396133	1.0
[RightHandRing3]
3	-29.37700081	0	0	-0.2734100521	-1.569093347	19.76758194	1.0
4	-29.37700081	0	0	-0.2727914155	-1.567372322	19.74498749	1.0
5	-29.37700081	0	0	-0.2711593509	-1.562818527	19.68522072	1.0
[RightHandRing4]
3	-26.47500038	0	0	0	0	0	1.0
4	-26.47500038	0	0	0	0	0	1.0
5	-26.47500038	0	0	0	0	0	1.0
[RightHandMiddle1]
3	-95.32500458	0	0	-1.696950197	-2.243222713	29.73276329	1.0
4	-95.32500458	0	0	-1.64881146	-2.013300896	29.09254456	1.0
5	-95.32500458	0	0	-1.576837897	-1.817107439	28.12662697	1.0
[RightHandMiddle2]
3	-36.98199844	0	0	-0.2400912791	-1.473128438	18.51250839	1.0
4	-36.98199844	0	0	-0.239741683	-1.472086072	18.49894333	1.0
5	-36.98199844	0	0	-0.2396013588	-1.471663237	18.493433	1.0
[RightHandMiddle3]
3	-29.50900078	0	0	-0.08615484089	-0.8920270205	11.05790615	1.0
4	-29.50900078	0	0	-0.08594297618	-0.8909435868	11.04426384	1.0
5	-29.50900078	0	0	-0.08585519344	-0.8905049562	11.03874397	1.0
[RightHandMiddle4]
3	-28.3390007	0	0.0009999999311	0	0	0	1.0
4	-28.3390007	0	0.0009999999311	0	0	0	1.0
5	-28.3390007	0	0.0009999999311	0	0	0	1.0
[RightHandIndex1]
3	-91.08300018	-5.167999744	22.60099792	-1.193107724	2.588431835	22.99713516	1.0
4	-91.08300018	-5.167999744	22.60099792	-1.150605559	2.817542076	22.40189171	1.0
5	-91.08300018	-5.167999744	22.60099792	-1.081512928	3.061367512	21.38074493	1.0
[RightHandIndex2]
3	-36.76399994	0	0	-0.1016033664	-0.9657030106	12.01203823	1.0
4	-36.76399994	0	0	-0.101455912	-0.965003252	12.00323772	1.0
5	-36.76399994	0	0	-0.1013217419	-0.9643695951	11.99522591	1.0
[RightHandIndex3]
3	-28.83100128	0	0	-0.1057337821	-0.9848985076	12.25453663	1.0
4	-28.83100128	0	0	-0.1055914015	-0.9842551351	12.24640274	1.0
5	-28.83100128	0	0	-0.105467625	-0.9836882949	12.2392416	1.0
[RightHandIndex4]
3	-23.92700005	0	0	0	0	0	1.0
4	-23.92700005	0	0	0	0	0	1.0
5	-23.92700005	0	0	0	0	0	1.0
[RightHandThumb1]
3	-24.64799881	-15.72700024	26.82600021	-0.1902875453	0.8218618631	0.3671384752	1.0
4	-24.64799881	-15.72700024	26.82600021	-0.1902875453	0.8218618631	0.3671384752	1.0
5	-24.64799881	-15.72700024	26.82600021	-0.1902875453	0.8218618631	0.3671384752	1.0
[RightHandThumb2]
3	-32.29800034	-18.64699936	18.64699936	14.03776264	-5.391849518	-20.25015831	1.0
4	-32.29800034	-18.64699936	18.64699936	11.97225475	-5.068059921	-20.1581707	1.0
5	-32.29800034	-18.64699936	18.64699936	10.27592468	-4.255051136	-19.9315567	1.0
[RightHandThumb3]
3	-26.52600098	-15.31399918	15.31399918	0.6991279125	5.881072521	-23.81700516	1.0
4	-26.52600098	-15.31399918	15.31399918	0.9866930246	5.226615906	-23.67829514	1.0
5	-26.52600098	-15.31399918	15.31399918	1.342841864	4.437954903	-23.42795563	1.0
[RightHandThumb4]
3	-19.54599953	-11.28499985	11.28499985	0	0	0	1.0
4	-19.54599953	-11.28499985	11.28499985	0	0	0	1.0
5	-19.54599953	-11.28499985	11.28499985	0	0	0	1.0
[LeftUpLeg]
3	82.07800293	-67.51699829	-15.99599934	-36.41640091	0.4204934835	-2.040272236	1.0
4	82.07800293	-67.51699829	-15.99599934	-37.15947723	0.7051811814	-1.812921286	1.0
5	82.07800293	-67.51699829	-15.99599934	-39.7181282	2.058213711	-0.4259714782	1.0
[LeftLeg]
3	0	-443.7049866	2.845999956	27.2240181	-0.2650108933	0.05531841889	1.0
4	0	-443.7049866	2.845999956	13.92935181	0.761500597	0.3728966415	1.0
5	0	-443.7049866	2.845999956	7.854334831	2.615935087	0.6635166407	1.0
[LeftFoot]
3	0	-444.2789917	-29.8219986	-3.893514156	-0.06612447649	-6.49906826	1.0
4	0	-444.2789917	-29.8219986	-4.983413696	-0.1912267357	-7.3387537	1.0
5	0	-444.2789917	-29.8219986	-8.709392548	-0.5970832109	-8.90725708	1.0
[LeftToeBase]
3	0	-87.28699493	107.1060028	-6.790518284	-2.349483657e-05	8.489287211e-07	1.0
4	0	-87.28699493	107.1060028	-7.137754917	-2.120152021e-05	-8.655699276e-06	1.0
5	0	-87.28699493	107.1060028	-7.496295929	-1.508147398e-05	-1.467957554e-05	1.0
[RightUpLeg]
3	-82.07800293	-67.51699829	-15.99599934	-8.046687126	-7.028106689	5.606460094	1.0
4	-82.07800293	-67.51699829	-15.99599934	-4.235723019	-8.05239296	5.990720749	1.0
5	-82.07800293	-67.51699829	-15.99599934	-0.003436249448	-9.256976128	5.907073021	1.0
[RightLeg]
3	0	-443.7049866	2.861999989	21.43152428	5.514173031	2.657429457	1.0
4	0	-443.7049866	2.861999989	21.4521656	7.567556381	3.586284637	1.0
5	0	-443.7049866	2.861999989	21.94804573	8.569959641	4.2132864	1.0
[RightFoot]
3	0	-444.2770081	-29.83799934	-18.8492775	-0.08625563234	-8.370866776	1.0
4	0	-444.2770081	-29.83799934	-22.64098549	1.970345497	-11.12200451	1.0
5	0	-444.2770081	-29.83799934	-27.61796188	5.959495068	-14.39033318	1.0
[RightToeBase]
3	0	-87.28699493	107.1060028	-7.263282299	-2.799916365e-05	3.925949386e-06	1.0
4	0	-87.28699493	107.1060028	-7.395412445	-2.091915121e-05	2.993233011e-06	1.0
5	0	-87.28699493	107.1060028	-7.983381748	-1.62787619e-05	-4.633156436e-07	1.0
[EndOfFile]
